<svg width="253" height="253" viewBox="0 0 253 253" fill="none" xmlns="http://www.w3.org/2000/svg">
<rect width="253" height="253" fill="#B692F6"/>
<path d="M178.297 95.6045C179.473 98.0266 180.153 100.739 180.153 103.628V162.277C180.153 172.117 172.461 180.115 162.998 180.115H106.586C103.808 180.115 101.187 179.408 98.8701 178.185C101.697 184 107.484 188 114.168 188H170.569C180.031 188 187.723 180.001 187.723 170.161V111.512C187.723 104.561 183.877 98.5439 178.284 95.6045H178.297Z" fill="#042420"/>
<path d="M155.78 173.404C165.243 173.404 172.934 165.406 172.934 155.566V96.904C172.934 95.8443 172.825 94.8225 172.655 93.8132C172.267 91.5425 171.478 89.4231 170.35 87.5308C168.688 84.7428 166.322 82.472 163.496 80.9834C164.248 82.5225 164.782 84.1751 165.073 85.9286C165.243 86.9379 165.352 87.9597 165.352 89.0194V147.668C165.352 157.508 157.66 165.506 148.198 165.506H91.7971C91.0934 165.506 90.3898 165.443 89.7104 165.355C87.7087 165.103 85.8161 164.485 84.0813 163.576C85.7919 167.096 88.5943 169.934 92.0155 171.638C93.6532 172.445 95.4245 173 97.2928 173.24C97.9843 173.328 98.6758 173.391 99.3794 173.391H155.78V173.404Z" fill="#042420"/>
<path d="M89.4316 159.338H140.567C150.03 159.338 157.721 151.34 157.721 141.5V82.8382C157.721 81.5766 157.588 80.3403 157.345 79.1418C156.848 76.6692 155.841 74.3985 154.47 72.4305C151.352 67.9394 146.293 65 140.567 65H84.1543C74.6915 65 67 72.9982 67 82.8382V141.5C67 149.031 71.5251 155.478 77.8943 158.089C79.3744 158.694 80.9515 159.098 82.6014 159.25C83.1109 159.3 83.6326 159.338 84.1664 159.338H89.4437H89.4316ZM147.664 141.5C147.664 145.574 144.473 148.892 140.555 148.892H105.336V122.98C105.336 113.14 113.028 105.142 122.491 105.142H147.664V141.5ZM147.664 97.2575H114.908C105.445 97.2575 97.754 105.256 97.754 115.096V148.892H90.5477V108.372C90.5477 98.5317 98.2392 90.5335 107.702 90.5335H147.664V97.2575ZM82.2253 148.602C79.2409 147.719 77.0572 144.881 77.0572 141.5V82.8382C77.0572 78.7634 80.2479 75.4455 84.1664 75.4455H140.567C143.163 75.4455 145.42 76.8963 146.669 79.0535C147.276 80.1132 147.64 81.3243 147.664 82.6363H100.12C90.6569 82.6363 82.9654 90.6345 82.9654 100.474V148.754C82.7106 148.703 82.468 148.653 82.2253 148.577V148.602Z" fill="#042420"/>
</svg>
